<svg width="16" height="16" viewBox="0 0 16 16" fill="none" xmlns="http://www.w3.org/2000/svg">
<path d="M7.27692 1.16527L3.46154 2.25L3 14.8889L3.27692 16L6.84615 14.8333L6.93846 11.8611L8.26154 14.0833L9.06154 14.3333L13 13.1667L9.4 6.83333L12.6308 0.527778L12.0769 0L8.01538 1.11111L7.27692 2.16667V1.16527Z" fill="black"/>
<path d="M3.67692 14.3889L4.16923 2.80556L6.35385 2.11111L6.10769 6.61111L8.50769 1.55556L11.1538 0.777778L7.86154 6.97222L11.0308 12.1944L8.50769 12.9167L6.07692 9.02778L5.95385 13.75L3.67692 14.3889Z" fill="white"/>
<path d="M5.61538 13.4167L4.07692 13.8611L4.63077 3.19444H4.75385V8.16667L5.8 6.58333V7.47222L6.81538 6.25L8.10769 5.47222L7.58462 7.05555L10.4462 12.0278L8.63077 12.5L5.86154 8.13889L5.61538 13.4167Z" fill="#E4193B"/>
</svg>
