<svg width="512" height="512" viewBox="0 0 512 512" fill="none" xmlns="http://www.w3.org/2000/svg">
<path d="M240.231 86.9132L154.385 113.828L144 427.431L150.231 455L230.538 426.052L232.615 352.304L262.385 407.443L280.385 413.646L369 384.698L288 227.552L360.692 71.0955L348.231 58L256.846 85.5694L240.231 111.76V86.9132Z" fill="black"/>
<path d="M159.231 415.024L170.308 127.613L219.462 110.382L213.923 222.038L267.923 96.5972L327.462 77.2986L253.385 230.998L324.692 360.575L267.923 378.495L213.231 282.002L210.462 399.172L159.231 415.024Z" fill="white"/>
<path d="M202.846 390.901L168.231 401.929L180.692 137.262H183.462V260.635L207 221.349V243.404L229.846 213.078L258.923 193.78L247.154 233.066L311.538 356.439L270.692 368.156L208.385 259.946L202.846 390.901Z" fill="#E4193B"/>
</svg>
