<svg width="225" height="397" viewBox="0 0 225 397" fill="none" xmlns="http://www.w3.org/2000/svg">
<path d="M96.2308 28.9132L10.3846 55.8281L0 369.431L6.23077 397L86.5385 368.052L88.6154 294.304L118.385 349.443L136.385 355.646L225 326.698L144 169.552L216.692 13.0955L204.231 0L112.846 27.5694L96.2308 53.7604V28.9132Z" fill="black"/>
<path d="M15.2308 357.024L26.3077 69.6128L75.4615 52.3819L69.9231 164.038L123.923 38.5972L183.462 19.2986L109.385 172.998L180.692 302.575L123.923 320.495L69.2308 224.002L66.4615 341.172L15.2308 357.024Z" fill="white"/>
<path d="M58.8462 332.901L24.2308 343.929L36.6923 79.2622H39.4615V202.635L63 163.349V185.404L85.8462 155.078L114.923 135.78L103.154 175.066L167.538 298.439L126.692 310.156L64.3846 201.946L58.8462 332.901Z" fill="#E4193B"/>
</svg>
