<svg width="597" height="420" viewBox="0 0 597 420" fill="none" xmlns="http://www.w3.org/2000/svg">
<path d="M218 116.5C204.8 116.1 171.5 128.333 156.5 134.5L149.769 127.5L82.7538 147.778L70.5692 167.042V148.766L7.61539 168.562L0 399.222L4.56923 419.5L63.4615 398.208L64.9846 343.965L86.8154 384.521L100.015 389.083L162.5 367.5C170.333 368 190.2 366.6 207 357C223.8 347.4 235.333 337.667 239 334L240.5 345L283.5 334C284.5 333.833 286.9 332.9 288.5 330.5C290.1 328.1 290.833 326.833 291 326.5L293 297L299.5 313.5L338 299.5L344 306.5L345.5 312L442.32 281.5L498 261.375L499.44 210.104L523.92 256L597 236.938L537.84 123.375L595 0L516.24 24.6667L504.72 42.875V25.6008L445.2 44.3125C440.533 40.6458 427.2 34.1 412 36.5C396.8 38.9 390.333 54.1666 389 61.5L334.5 80.5L320.5 127L307 87.5L248.5 103L241 106.5V124C238.833 121.667 231.2 116.9 218 116.5Z" fill="black"/>
<path d="M11.1694 390.097L19.2925 178.701L55.3387 166.028L51.2771 248.153L90.8771 155.889L134.539 141.694L80.2156 254.743L132.508 350.049L90.8771 363.229L50.7694 292.257L48.7387 378.437L11.1694 390.097Z" fill="white"/>
<path d="M43.154 372.354L17.7694 380.465L26.9079 185.799H27.5002L28.9387 276.542L46.2002 247.646V263.868L62.9541 241.562L84.2771 227.368L75.6464 256.264L122.862 347.007L92.9079 355.625L47.2156 276.035L43.154 372.354Z" fill="#E4193B"/>
<path d="M214.112 127.625C218.409 127.498 224.117 128.003 229.708 130.545C235.382 133.124 238.202 138.019 239.601 142.217C240.301 144.318 240.651 146.258 240.826 147.673C240.913 148.38 240.958 148.959 240.98 149.361C240.991 149.562 240.996 149.72 240.998 149.828C241 149.882 241.001 149.924 241.001 149.953V149.999C240.999 149.999 240.962 150 240.501 150L241.001 149.999V150.015L236.502 289.984C236.503 289.99 236.503 289.996 236.503 290.003C236.505 290.029 236.507 290.068 236.509 290.117C236.513 290.215 236.517 290.358 236.517 290.544C236.517 290.915 236.501 291.456 236.437 292.147C236.309 293.531 235.99 295.519 235.229 297.961C233.753 302.695 230.619 309.124 224.011 316.164L223.361 316.847C204.064 336.833 181.1 341.244 165.503 341.943L164.017 342C155.95 342.252 149.985 340.803 145.58 338.457C141.171 336.109 138.354 332.878 136.563 329.615C134.775 326.358 134.011 323.075 133.693 320.611C133.534 319.378 133.486 318.346 133.478 317.621C133.474 317.258 133.481 316.971 133.488 316.773C133.491 316.675 133.495 316.598 133.497 316.546C133.499 316.52 133.5 316.499 133.501 316.485C133.502 316.478 133.502 316.472 133.502 316.469L133.503 316.464L139.502 181.977V181.966L139.504 181.953V181.95C139.504 181.95 139.505 181.945 139.505 181.942C139.506 181.936 139.506 181.927 139.507 181.917C139.51 181.894 139.514 181.861 139.519 181.819C139.529 181.734 139.544 181.609 139.567 181.447C139.613 181.123 139.689 180.648 139.808 180.04C140.046 178.823 140.457 177.072 141.151 174.918C142.539 170.609 145.06 164.687 149.592 158.213C154.13 151.73 159.049 147.44 162.838 144.769C164.733 143.434 166.346 142.503 167.489 141.905C168.06 141.606 168.514 141.39 168.827 141.248C168.983 141.177 169.104 141.124 169.187 141.089C169.228 141.071 169.26 141.059 169.282 141.05C169.293 141.045 169.302 141.041 169.308 141.039C169.311 141.038 169.315 141.036 169.315 141.036L169.317 141.035L169.343 141.025L206.843 128.525L206.86 128.52L206.875 128.516L207 128.998C206.877 128.525 206.875 128.516 206.875 128.516L206.878 128.515L206.913 128.507C206.937 128.501 206.972 128.492 207.017 128.481C207.107 128.46 207.241 128.428 207.413 128.391C207.756 128.318 208.257 128.219 208.89 128.116C210.158 127.91 211.961 127.688 214.112 127.625Z" fill="white"/>
<path d="M211.5 192.5C211.5 195.641 211.873 200.419 212.248 204.529C212.436 206.581 212.622 208.461 212.763 209.879C212.833 210.587 212.893 211.181 212.934 211.624C212.944 211.729 212.951 211.829 212.959 211.92C213.342 211.764 213.908 211.495 214.623 211.127C216.069 210.383 218.077 209.269 220.315 207.991C224.789 205.436 230.16 202.238 233.741 200.072L234.527 199.598L232 287.015C232 287.022 231.999 287.031 231.999 287.043C231.999 287.068 231.998 287.105 231.996 287.152C231.993 287.247 231.985 287.384 231.971 287.563C231.942 287.922 231.886 288.446 231.775 289.121C231.551 290.47 231.106 292.422 230.22 294.858C228.447 299.733 224.914 306.538 217.871 314.335C203.767 329.95 187.124 337.003 163.99 336.5C152.326 336.246 146.172 331.287 142.956 326.335C141.357 323.872 140.495 321.427 140.031 319.6C139.8 318.685 139.667 317.922 139.593 317.386C139.556 317.118 139.532 316.906 139.519 316.76C139.512 316.687 139.508 316.63 139.505 316.591C139.504 316.571 139.503 316.556 139.502 316.545C139.502 316.54 139.501 316.535 139.501 316.532V316.527C139.501 316.527 139.501 316.526 140 316.5L139.501 316.527L139.499 316.501L139.501 316.475L145.001 205.475L145.998 205.459L147.945 229.309L169.014 221.785L169 222.51L168.5 222.5C169 222.51 169 222.51 169 222.51V222.523C169 222.533 169 222.547 168.999 222.565C168.999 222.602 168.997 222.658 168.995 222.73C168.992 222.876 168.989 223.093 168.984 223.375C168.973 223.94 168.956 224.768 168.936 225.824C168.895 227.935 168.836 230.955 168.766 234.588C168.625 241.853 168.438 251.572 168.25 261.385C167.875 281.015 167.5 301.006 167.5 302.5C167.5 304.118 168.072 305.097 168.761 305.681C169.468 306.279 170.347 306.5 171 306.5C171.049 306.5 171.211 306.484 171.515 306.437C171.803 306.393 172.187 306.327 172.654 306.241C173.589 306.069 174.848 305.819 176.325 305.503C179.28 304.871 183.099 303.983 186.933 302.954C190.77 301.925 194.608 300.759 197.606 299.574C199.105 298.981 200.38 298.389 201.333 297.814C202.312 297.225 202.861 296.706 203.043 296.297C203.083 296.207 203.141 296.017 203.209 295.7C203.275 295.393 203.346 294.997 203.42 294.515C203.569 293.549 203.729 292.258 203.9 290.685C204.241 287.541 204.619 283.29 205.018 278.311C205.814 268.355 206.689 255.498 207.501 242.78C208.314 230.063 209.064 217.486 209.611 208.088C209.884 203.389 210.107 199.485 210.261 196.756C210.338 195.391 210.398 194.32 210.439 193.591C210.459 193.226 210.475 192.946 210.486 192.758C210.491 192.664 210.495 192.593 210.497 192.545C210.499 192.521 210.5 192.502 210.5 192.49C210.501 192.484 210.501 192.479 210.501 192.476V192.474C210.504 192.473 210.539 192.474 211 192.5L210.501 192.474L211.5 192.5Z" fill="#E4193B"/>
<path d="M200 168C202.063 168 203.392 168.387 204.224 168.803C204.639 169.01 204.927 169.223 205.116 169.394C205.211 169.479 205.281 169.553 205.329 169.61C205.354 169.639 205.373 169.663 205.387 169.682C205.394 169.691 205.4 169.699 205.404 169.706C205.407 169.709 205.409 169.713 205.411 169.716L205.414 169.72L205.415 169.721C205.415 169.721 205.416 169.723 205 170C205.46 170.022 205.496 170.024 205.499 170.025V170.029C205.499 170.033 205.499 170.039 205.498 170.046C205.498 170.06 205.497 170.082 205.495 170.111C205.493 170.169 205.488 170.257 205.483 170.371C205.472 170.6 205.456 170.939 205.435 171.382C205.392 172.268 205.329 173.568 205.249 175.223C205.089 178.532 204.86 183.262 204.583 188.944C204.029 200.31 203.283 215.487 202.515 230.729C201.747 245.972 200.956 261.282 200.314 272.914C199.992 278.73 199.708 283.627 199.482 287.138C199.369 288.893 199.269 290.303 199.188 291.31C199.147 291.812 199.111 292.217 199.078 292.515C199.062 292.663 199.046 292.789 199.031 292.889C199.018 292.976 199.001 293.078 198.975 293.158C198.882 293.435 198.65 293.665 198.43 293.844C198.191 294.038 197.878 294.242 197.515 294.451C196.786 294.87 195.798 295.34 194.651 295.838C192.352 296.835 189.362 297.961 186.404 299.017C183.443 300.073 180.505 301.063 178.308 301.789C177.209 302.152 176.295 302.448 175.655 302.654C175.336 302.757 175.085 302.838 174.914 302.893C174.829 302.92 174.763 302.941 174.719 302.955C174.697 302.962 174.679 302.968 174.668 302.972C174.663 302.973 174.658 302.975 174.655 302.976L174.653 302.977L174.648 302.978C174.643 302.979 174.637 302.981 174.629 302.983C174.614 302.988 174.592 302.995 174.566 303.002C174.513 303.016 174.438 303.035 174.348 303.053C174.168 303.089 173.915 303.125 173.625 303.125C173.048 303.125 172.274 302.98 171.647 302.353C171.086 301.792 170.797 301.223 170.651 300.783C170.578 300.564 170.54 300.378 170.521 300.242C170.511 300.174 170.506 300.119 170.503 300.078C170.502 300.058 170.502 300.04 170.501 300.027C170.501 300.021 170.5 300.015 170.5 300.011V300.001C170.5 300.001 170.5 300 171 300L170.5 300.001V299.987L173.5 180.487L173.502 180.427L173.518 180.368L173.519 180.366L173.52 180.362C173.52 180.36 173.521 180.358 173.522 180.355C173.523 180.35 173.526 180.342 173.529 180.334C173.534 180.317 173.54 180.295 173.55 180.269C173.569 180.215 173.598 180.143 173.639 180.056C173.72 179.881 173.851 179.645 174.052 179.374C174.456 178.83 175.138 178.156 176.266 177.559C179.471 175.862 184.612 173.48 189.324 171.522C191.681 170.544 193.938 169.668 195.798 169.036C196.728 168.72 197.565 168.464 198.268 168.285C198.96 168.109 199.56 168 200 168Z" fill="black"/>
<path d="M205.507 169.859L205.499 170.025L205 170L205.416 169.723L205.507 169.859Z" fill="black"/>
<path d="M382.5 278.02L382.486 278.38L382.14 278.48L346.957 288.678L354.634 163.451L328.923 274.391L296.58 284.658L284.264 188.968L279.5 309.02L279.486 309.375L245.473 319.683L253.5 115.98L253.515 115.628L253.852 115.522L299.395 101.353L318.057 208.418L344.574 88.1084L344.852 88.0224L390.528 73.8125L382.5 278.02Z" fill="white"/>
<path d="M281.5 155.021L275 305.521L274.985 305.863L251.98 313.706L255.519 191.364L256.121 191.515C256.121 191.515 256.124 191.515 256.126 191.516C256.132 191.517 256.141 191.52 256.154 191.522C256.179 191.528 256.22 191.537 256.275 191.547C256.385 191.567 256.554 191.594 256.777 191.62C257.222 191.672 257.885 191.718 258.733 191.687C260.427 191.627 262.868 191.263 265.808 190.038C268.748 188.813 271.832 186.719 274.197 184.915C275.375 184.016 276.368 183.193 277.066 182.597C277.414 182.298 277.689 182.056 277.876 181.89C277.932 181.84 277.98 181.797 278.02 181.761L280.502 154.954L281.5 155.021Z" fill="#E4193B"/>
<path d="M382.5 133.511L382 156.511V156.515L378.489 274.88L352.971 282.171L358.066 162.447L358.916 163.723C358.916 163.723 358.919 163.727 358.921 163.73C358.927 163.738 358.936 163.751 358.948 163.768C358.974 163.801 359.012 163.852 359.064 163.914C359.168 164.039 359.32 164.205 359.513 164.37C359.906 164.707 360.419 165 361 165C360.998 165 361.022 164.999 361.086 164.986C361.146 164.974 361.224 164.954 361.322 164.926C361.516 164.869 361.77 164.784 362.075 164.672C362.686 164.448 363.485 164.126 364.407 163.736C366.252 162.957 368.575 161.917 370.855 160.875C373.134 159.833 375.366 158.791 377.03 158.01C377.861 157.619 378.55 157.293 379.031 157.065C379.235 156.969 379.401 156.889 379.526 156.83L381.502 133.458L382.5 133.511Z" fill="#E4193B"/>
<path d="M325.488 270.112L325.417 270.414L325.116 270.486L301.576 276.115L288.949 179.648L289.351 179.522L305.879 174.357L315.972 223.812C315.98 223.825 315.99 223.84 316.002 223.856C316.051 223.922 316.132 224.015 316.25 224.109C316.48 224.294 316.872 224.5 317.5 224.5C318.129 224.5 318.52 224.294 318.75 224.109C318.868 224.015 318.949 223.922 318.998 223.856C319.013 223.837 319.023 223.819 319.032 223.806L330.514 175.884L330.561 175.689L330.728 175.58L350.266 162.907L325.488 270.112Z" fill="#E4193B"/>
<path d="M414.5 80.9999C410 82.4999 398.772 70.7141 398.5 68C398 62.9999 400 58.4999 403 53.5C406 48.5 410.5 44.4999 418 43.4999C425.5 42.4999 433 47.9999 433 58.4999C433 68.9999 419 79.4999 414.5 80.9999Z" fill="white"/>
<path d="M421.5 60.5001C423.478 60.2364 425.218 60.6483 426 59.5C426.757 58.3891 426.5 56.5 426.5 56.5C429 57.5 432.262 60.6196 433.026 62.0054C431.916 66.214 428.999 70.2213 425.794 73.4751C423.74 75.5607 421.545 77.3623 419.576 78.7378C417.617 80.1067 415.851 81.0764 414.658 81.4742C413.975 81.702 413.203 81.6655 412.411 81.4683C411.617 81.2703 410.766 80.9014 409.898 80.4205C408.162 79.4584 406.296 78.0132 404.578 76.4498C403.119 75.1211 401.754 73.694 400.654 72.3843C402 70 404 68.0001 406.017 66.5241C406.017 66.5241 413.821 61.524 421.5 60.5001Z" fill="#E4193B"/>
<path d="M428.5 261.519L428.487 261.861L392.473 274.209L399 102.481L399.014 102.134L435.028 90.3007L428.5 261.519Z" fill="white"/>
<path d="M405.956 156.769L425.555 148.643L427.008 140.413L428 140.518L423.988 257.355L397.97 266.723L403.5 132.979L404.499 132.97L405.956 156.769Z" fill="#E4193B"/>
<path d="M448.56 253.708L456.24 53.8958L490.32 41.9166L486.48 119.542L523.92 32.3333L565.2 18.9166L513.84 125.771L563.28 215.854L523.92 228.312L486 161.229L484.08 242.687L448.56 253.708Z" fill="white"/>
<path d="M478.8 236.937L454.8 244.604L463.44 60.6041H464L465.36 146.375L481.68 119.062V134.396L497.52 113.312L517.68 99.8958L509.52 127.208L554.16 212.979L525.84 221.125L482.64 145.896L478.8 236.937Z" fill="#E4193B"/>
</svg>
